<mxfile host="65bd71144e" pages="2">
    <diagram id="SPoiEru_b8O4fB-AkGRN" name="Página-2">
        <mxGraphModel dx="1416" dy="1126" grid="1" gridSize="10" guides="1" tooltips="1" connect="1" arrows="1" fold="1" page="1" pageScale="1" pageWidth="827" pageHeight="1169" math="0" shadow="0">
            <root>
                <mxCell id="0"/>
                <mxCell id="1" parent="0"/>
                <mxCell id="2" value="" style="rounded=0;whiteSpace=wrap;html=1;strokeColor=none;" vertex="1" parent="1">
                    <mxGeometry x="220" y="100" width="1210" height="990" as="geometry"/>
                </mxCell>
                <mxCell id="DgBatSYD82bQFzQM79zM-1" style="edgeStyle=orthogonalEdgeStyle;rounded=0;orthogonalLoop=1;jettySize=auto;html=1;exitX=0.5;exitY=1;exitDx=0;exitDy=0;entryX=0.5;entryY=0;entryDx=0;entryDy=0;" parent="1" source="DgBatSYD82bQFzQM79zM-2" target="DgBatSYD82bQFzQM79zM-66" edge="1">
                    <mxGeometry relative="1" as="geometry"/>
                </mxCell>
                <mxCell id="DgBatSYD82bQFzQM79zM-2" value="Login" style="rounded=0;whiteSpace=wrap;html=1;fillColor=#e1d5e7;strokeColor=#9673a6;" parent="1" vertex="1">
                    <mxGeometry x="310" y="273" width="120" height="60" as="geometry"/>
                </mxCell>
                <mxCell id="DgBatSYD82bQFzQM79zM-3" style="edgeStyle=orthogonalEdgeStyle;rounded=0;orthogonalLoop=1;jettySize=auto;html=1;exitX=0.5;exitY=1;exitDx=0;exitDy=0;entryX=0.5;entryY=0;entryDx=0;entryDy=0;" parent="1" source="DgBatSYD82bQFzQM79zM-4" target="DgBatSYD82bQFzQM79zM-50" edge="1">
                    <mxGeometry relative="1" as="geometry">
                        <Array as="points">
                            <mxPoint x="790" y="390"/>
                            <mxPoint x="741" y="390"/>
                        </Array>
                    </mxGeometry>
                </mxCell>
                <mxCell id="DgBatSYD82bQFzQM79zM-4" value="Registro" style="rounded=0;whiteSpace=wrap;html=1;fillColor=#e1d5e7;strokeColor=#9673a6;" parent="1" vertex="1">
                    <mxGeometry x="730" y="270" width="120" height="60" as="geometry"/>
                </mxCell>
                <mxCell id="DgBatSYD82bQFzQM79zM-5" style="edgeStyle=orthogonalEdgeStyle;rounded=0;orthogonalLoop=1;jettySize=auto;html=1;exitX=0.5;exitY=1;exitDx=0;exitDy=0;entryX=0.5;entryY=0;entryDx=0;entryDy=0;" parent="1" source="DgBatSYD82bQFzQM79zM-6" target="DgBatSYD82bQFzQM79zM-30" edge="1">
                    <mxGeometry relative="1" as="geometry"/>
                </mxCell>
                <mxCell id="DgBatSYD82bQFzQM79zM-6" value="Recuperación de Contraseña" style="rounded=0;whiteSpace=wrap;html=1;fillColor=#e1d5e7;strokeColor=#9673a6;" parent="1" vertex="1">
                    <mxGeometry x="310" y="490" width="120" height="60" as="geometry"/>
                </mxCell>
                <mxCell id="DgBatSYD82bQFzQM79zM-7" style="edgeStyle=orthogonalEdgeStyle;rounded=0;orthogonalLoop=1;jettySize=auto;html=1;exitX=0.25;exitY=1;exitDx=0;exitDy=0;entryX=0.5;entryY=0;entryDx=0;entryDy=0;" parent="1" source="DgBatSYD82bQFzQM79zM-10" target="DgBatSYD82bQFzQM79zM-2" edge="1">
                    <mxGeometry relative="1" as="geometry"/>
                </mxCell>
                <mxCell id="DgBatSYD82bQFzQM79zM-8" style="edgeStyle=orthogonalEdgeStyle;rounded=0;orthogonalLoop=1;jettySize=auto;html=1;exitX=0.75;exitY=1;exitDx=0;exitDy=0;entryX=0.5;entryY=0;entryDx=0;entryDy=0;" parent="1" source="DgBatSYD82bQFzQM79zM-10" target="DgBatSYD82bQFzQM79zM-27" edge="1">
                    <mxGeometry relative="1" as="geometry">
                        <Array as="points">
                            <mxPoint x="820" y="250"/>
                            <mxPoint x="1250" y="250"/>
                        </Array>
                    </mxGeometry>
                </mxCell>
                <mxCell id="DgBatSYD82bQFzQM79zM-9" style="edgeStyle=orthogonalEdgeStyle;rounded=0;orthogonalLoop=1;jettySize=auto;html=1;exitX=0.5;exitY=1;exitDx=0;exitDy=0;entryX=0.5;entryY=0;entryDx=0;entryDy=0;" parent="1" source="DgBatSYD82bQFzQM79zM-10" target="DgBatSYD82bQFzQM79zM-4" edge="1">
                    <mxGeometry relative="1" as="geometry"/>
                </mxCell>
                <mxCell id="DgBatSYD82bQFzQM79zM-10" value="Pagina Principal (Feed)" style="whiteSpace=wrap;html=1;fillColor=#f8cecc;strokeColor=#b85450;" parent="1" vertex="1">
                    <mxGeometry x="730" y="160" width="120" height="60" as="geometry"/>
                </mxCell>
                <mxCell id="DgBatSYD82bQFzQM79zM-11" style="edgeStyle=orthogonalEdgeStyle;rounded=0;orthogonalLoop=1;jettySize=auto;html=1;exitX=0;exitY=0.5;exitDx=0;exitDy=0;entryX=0;entryY=0.5;entryDx=0;entryDy=0;" parent="1" source="DgBatSYD82bQFzQM79zM-14" target="DgBatSYD82bQFzQM79zM-54" edge="1">
                    <mxGeometry relative="1" as="geometry"/>
                </mxCell>
                <mxCell id="DgBatSYD82bQFzQM79zM-12" style="edgeStyle=orthogonalEdgeStyle;rounded=0;orthogonalLoop=1;jettySize=auto;html=1;exitX=0;exitY=0.5;exitDx=0;exitDy=0;entryX=0;entryY=0.5;entryDx=0;entryDy=0;" parent="1" source="DgBatSYD82bQFzQM79zM-14" target="DgBatSYD82bQFzQM79zM-15" edge="1">
                    <mxGeometry relative="1" as="geometry"/>
                </mxCell>
                <mxCell id="DgBatSYD82bQFzQM79zM-13" style="edgeStyle=orthogonalEdgeStyle;rounded=0;orthogonalLoop=1;jettySize=auto;html=1;exitX=0;exitY=0.5;exitDx=0;exitDy=0;entryX=0;entryY=0.5;entryDx=0;entryDy=0;" parent="1" source="DgBatSYD82bQFzQM79zM-14" target="DgBatSYD82bQFzQM79zM-19" edge="1">
                    <mxGeometry relative="1" as="geometry"/>
                </mxCell>
                <mxCell id="DgBatSYD82bQFzQM79zM-14" value="Mi Perfil" style="whiteSpace=wrap;html=1;fillColor=#dae8fc;strokeColor=#6c8ebf;" parent="1" vertex="1">
                    <mxGeometry x="490.02" y="586.25" width="120" height="60" as="geometry"/>
                </mxCell>
                <mxCell id="DgBatSYD82bQFzQM79zM-15" value="Editar Perfil" style="whiteSpace=wrap;html=1;fillColor=#dae8fc;strokeColor=#6c8ebf;" parent="1" vertex="1">
                    <mxGeometry x="490.02" y="830" width="120" height="60" as="geometry"/>
                </mxCell>
                <mxCell id="DgBatSYD82bQFzQM79zM-16" style="edgeStyle=orthogonalEdgeStyle;rounded=0;orthogonalLoop=1;jettySize=auto;html=1;exitX=1;exitY=0.5;exitDx=0;exitDy=0;entryX=0;entryY=0.5;entryDx=0;entryDy=0;" parent="1" source="DgBatSYD82bQFzQM79zM-17" target="DgBatSYD82bQFzQM79zM-35" edge="1">
                    <mxGeometry relative="1" as="geometry"/>
                </mxCell>
                <mxCell id="DgBatSYD82bQFzQM79zM-17" value="Comentarios" style="whiteSpace=wrap;html=1;fillColor=#d5e8d4;strokeColor=#82b366;" parent="1" vertex="1">
                    <mxGeometry x="1100" y="429" width="120" height="60" as="geometry"/>
                </mxCell>
                <mxCell id="DgBatSYD82bQFzQM79zM-18" style="edgeStyle=orthogonalEdgeStyle;rounded=0;orthogonalLoop=1;jettySize=auto;html=1;exitX=0.5;exitY=1;exitDx=0;exitDy=0;entryX=0.5;entryY=0;entryDx=0;entryDy=0;" parent="1" source="DgBatSYD82bQFzQM79zM-19" target="DgBatSYD82bQFzQM79zM-70" edge="1">
                    <mxGeometry relative="1" as="geometry"/>
                </mxCell>
                <mxCell id="DgBatSYD82bQFzQM79zM-19" value="Creación de Publicación" style="whiteSpace=wrap;html=1;fillColor=#dae8fc;strokeColor=#6c8ebf;" parent="1" vertex="1">
                    <mxGeometry x="490.02" y="907" width="120" height="60" as="geometry"/>
                </mxCell>
                <mxCell id="DgBatSYD82bQFzQM79zM-20" style="edgeStyle=orthogonalEdgeStyle;rounded=0;orthogonalLoop=1;jettySize=auto;html=1;exitX=0;exitY=0.5;exitDx=0;exitDy=0;entryX=0;entryY=0.5;entryDx=0;entryDy=0;" parent="1" source="DgBatSYD82bQFzQM79zM-22" target="DgBatSYD82bQFzQM79zM-23" edge="1">
                    <mxGeometry relative="1" as="geometry"/>
                </mxCell>
                <mxCell id="DgBatSYD82bQFzQM79zM-21" style="edgeStyle=orthogonalEdgeStyle;rounded=0;orthogonalLoop=1;jettySize=auto;html=1;exitX=0;exitY=0.5;exitDx=0;exitDy=0;entryX=0;entryY=0.5;entryDx=0;entryDy=0;" parent="1" source="DgBatSYD82bQFzQM79zM-22" target="DgBatSYD82bQFzQM79zM-24" edge="1">
                    <mxGeometry relative="1" as="geometry"/>
                </mxCell>
                <mxCell id="DgBatSYD82bQFzQM79zM-22" value="Lista de Amigos" style="whiteSpace=wrap;html=1;fillColor=#ffe6cc;strokeColor=#d79b00;" parent="1" vertex="1">
                    <mxGeometry x="1062.52" y="678.75" width="120" height="60" as="geometry"/>
                </mxCell>
                <mxCell id="DgBatSYD82bQFzQM79zM-23" value="Perfil de Amigo" style="whiteSpace=wrap;html=1;fillColor=#ffe6cc;strokeColor=#d79b00;" parent="1" vertex="1">
                    <mxGeometry x="1062.52" y="771.75" width="120" height="60" as="geometry"/>
                </mxCell>
                <mxCell id="DgBatSYD82bQFzQM79zM-24" value="Chat con Amigo" style="whiteSpace=wrap;html=1;fillColor=#ffe6cc;strokeColor=#d79b00;" parent="1" vertex="1">
                    <mxGeometry x="1062.52" y="861.75" width="120" height="60" as="geometry"/>
                </mxCell>
                <mxCell id="DgBatSYD82bQFzQM79zM-25" style="edgeStyle=orthogonalEdgeStyle;rounded=0;orthogonalLoop=1;jettySize=auto;html=1;exitX=0.75;exitY=1;exitDx=0;exitDy=0;entryX=0.5;entryY=0;entryDx=0;entryDy=0;" parent="1" source="DgBatSYD82bQFzQM79zM-27" target="DgBatSYD82bQFzQM79zM-35" edge="1">
                    <mxGeometry relative="1" as="geometry"/>
                </mxCell>
                <mxCell id="DgBatSYD82bQFzQM79zM-26" style="edgeStyle=orthogonalEdgeStyle;rounded=0;orthogonalLoop=1;jettySize=auto;html=1;exitX=0.25;exitY=1;exitDx=0;exitDy=0;entryX=0.5;entryY=0;entryDx=0;entryDy=0;" parent="1" source="DgBatSYD82bQFzQM79zM-27" target="DgBatSYD82bQFzQM79zM-17" edge="1">
                    <mxGeometry relative="1" as="geometry"/>
                </mxCell>
                <mxCell id="DgBatSYD82bQFzQM79zM-27" value="Publicación" style="whiteSpace=wrap;html=1;fillColor=#d5e8d4;strokeColor=#82b366;" parent="1" vertex="1">
                    <mxGeometry x="1190" y="284" width="120" height="60" as="geometry"/>
                </mxCell>
                <mxCell id="DgBatSYD82bQFzQM79zM-28" style="edgeStyle=orthogonalEdgeStyle;rounded=0;orthogonalLoop=1;jettySize=auto;html=1;exitX=0.5;exitY=1;exitDx=0;exitDy=0;entryX=0.5;entryY=0;entryDx=0;entryDy=0;" parent="1" source="DgBatSYD82bQFzQM79zM-29" target="DgBatSYD82bQFzQM79zM-52" edge="1">
                    <mxGeometry relative="1" as="geometry"/>
                </mxCell>
                <mxCell id="DgBatSYD82bQFzQM79zM-29" value="Buscador de Estudiantes" style="whiteSpace=wrap;html=1;fillColor=#ffe6cc;strokeColor=#d79b00;" parent="1" vertex="1">
                    <mxGeometry x="853.02" y="679.75" width="120" height="60" as="geometry"/>
                </mxCell>
                <mxCell id="DgBatSYD82bQFzQM79zM-30" value="&lt;div&gt;Email de recuperación enviado&lt;/div&gt;" style="rounded=0;whiteSpace=wrap;html=1;fillColor=#e1d5e7;strokeColor=#9673a6;" parent="1" vertex="1">
                    <mxGeometry x="310" y="606" width="120" height="60" as="geometry"/>
                </mxCell>
                <mxCell id="DgBatSYD82bQFzQM79zM-31" style="edgeStyle=orthogonalEdgeStyle;rounded=0;orthogonalLoop=1;jettySize=auto;html=1;exitX=0.25;exitY=1;exitDx=0;exitDy=0;entryX=0.5;entryY=0;entryDx=0;entryDy=0;" parent="1" source="DgBatSYD82bQFzQM79zM-33" target="DgBatSYD82bQFzQM79zM-29" edge="1">
                    <mxGeometry relative="1" as="geometry">
                        <Array as="points">
                            <mxPoint x="986.02" y="659.75"/>
                            <mxPoint x="913.02" y="659.75"/>
                        </Array>
                    </mxGeometry>
                </mxCell>
                <mxCell id="DgBatSYD82bQFzQM79zM-32" style="edgeStyle=orthogonalEdgeStyle;rounded=0;orthogonalLoop=1;jettySize=auto;html=1;exitX=0.75;exitY=1;exitDx=0;exitDy=0;entryX=0.5;entryY=0;entryDx=0;entryDy=0;" parent="1" source="DgBatSYD82bQFzQM79zM-33" target="DgBatSYD82bQFzQM79zM-22" edge="1">
                    <mxGeometry relative="1" as="geometry">
                        <mxPoint x="1183.02" y="643.75" as="targetPoint"/>
                        <Array as="points">
                            <mxPoint x="1046.02" y="659.75"/>
                            <mxPoint x="1123.02" y="659.75"/>
                        </Array>
                    </mxGeometry>
                </mxCell>
                <mxCell id="DgBatSYD82bQFzQM79zM-33" value="Amigos" style="whiteSpace=wrap;html=1;fillColor=#ffe6cc;strokeColor=#d79b00;" parent="1" vertex="1">
                    <mxGeometry x="956.02" y="583.25" width="120" height="60" as="geometry"/>
                </mxCell>
                <mxCell id="DgBatSYD82bQFzQM79zM-34" style="edgeStyle=orthogonalEdgeStyle;rounded=0;orthogonalLoop=1;jettySize=auto;html=1;exitX=0.5;exitY=1;exitDx=0;exitDy=0;entryX=0.5;entryY=0;entryDx=0;entryDy=0;" parent="1" source="DgBatSYD82bQFzQM79zM-35" target="DgBatSYD82bQFzQM79zM-38" edge="1">
                    <mxGeometry relative="1" as="geometry"/>
                </mxCell>
                <mxCell id="DgBatSYD82bQFzQM79zM-35" value="&lt;div&gt;Comentar&lt;/div&gt;" style="whiteSpace=wrap;html=1;fillColor=#d5e8d4;strokeColor=#82b366;" parent="1" vertex="1">
                    <mxGeometry x="1270" y="429" width="120" height="60" as="geometry"/>
                </mxCell>
                <mxCell id="DgBatSYD82bQFzQM79zM-36" style="edgeStyle=orthogonalEdgeStyle;rounded=0;orthogonalLoop=1;jettySize=auto;html=1;exitX=0;exitY=0.5;exitDx=0;exitDy=0;entryX=0.5;entryY=0;entryDx=0;entryDy=0;" parent="1" source="DgBatSYD82bQFzQM79zM-38" target="DgBatSYD82bQFzQM79zM-41" edge="1">
                    <mxGeometry relative="1" as="geometry"/>
                </mxCell>
                <mxCell id="DgBatSYD82bQFzQM79zM-37" style="edgeStyle=orthogonalEdgeStyle;rounded=0;orthogonalLoop=1;jettySize=auto;html=1;exitX=1;exitY=0.5;exitDx=0;exitDy=0;entryX=0.5;entryY=0;entryDx=0;entryDy=0;" parent="1" source="DgBatSYD82bQFzQM79zM-38" target="DgBatSYD82bQFzQM79zM-42" edge="1">
                    <mxGeometry relative="1" as="geometry">
                        <Array as="points">
                            <mxPoint x="1400" y="547"/>
                            <mxPoint x="1400" y="699"/>
                            <mxPoint x="1325" y="699"/>
                        </Array>
                    </mxGeometry>
                </mxCell>
                <mxCell id="DgBatSYD82bQFzQM79zM-38" value="" style="rhombus;whiteSpace=wrap;html=1;fillColor=#fff2cc;strokeColor=#d6b656;" parent="1" vertex="1">
                    <mxGeometry x="1312" y="529" width="36" height="36" as="geometry"/>
                </mxCell>
                <mxCell id="DgBatSYD82bQFzQM79zM-39" value="¿Sesión iniciada?" style="text;html=1;align=center;verticalAlign=middle;whiteSpace=wrap;rounded=0;" parent="1" vertex="1">
                    <mxGeometry x="1265" y="565" width="130" height="30" as="geometry"/>
                </mxCell>
                <mxCell id="DgBatSYD82bQFzQM79zM-40" style="edgeStyle=orthogonalEdgeStyle;rounded=0;orthogonalLoop=1;jettySize=auto;html=1;exitX=0.5;exitY=1;exitDx=0;exitDy=0;entryX=0.5;entryY=0;entryDx=0;entryDy=0;" parent="1" source="DgBatSYD82bQFzQM79zM-41" target="DgBatSYD82bQFzQM79zM-42" edge="1">
                    <mxGeometry relative="1" as="geometry">
                        <Array as="points">
                            <mxPoint x="1250" y="699"/>
                            <mxPoint x="1325" y="699"/>
                        </Array>
                    </mxGeometry>
                </mxCell>
                <mxCell id="DgBatSYD82bQFzQM79zM-41" value="Login/Registro" style="whiteSpace=wrap;html=1;fillColor=#d5e8d4;strokeColor=#82b366;" parent="1" vertex="1">
                    <mxGeometry x="1190" y="605" width="120" height="60" as="geometry"/>
                </mxCell>
                <mxCell id="DgBatSYD82bQFzQM79zM-42" value="Creación de Comentario" style="whiteSpace=wrap;html=1;fillColor=#d5e8d4;strokeColor=#82b366;" parent="1" vertex="1">
                    <mxGeometry x="1265" y="719" width="120" height="60" as="geometry"/>
                </mxCell>
                <mxCell id="DgBatSYD82bQFzQM79zM-43" value="No" style="text;html=1;align=center;verticalAlign=middle;whiteSpace=wrap;rounded=0;" parent="1" vertex="1">
                    <mxGeometry x="1240" y="525" width="60" height="30" as="geometry"/>
                </mxCell>
                <mxCell id="DgBatSYD82bQFzQM79zM-44" value="Si" style="text;html=1;align=center;verticalAlign=middle;whiteSpace=wrap;rounded=0;" parent="1" vertex="1">
                    <mxGeometry x="1350" y="525" width="60" height="30" as="geometry"/>
                </mxCell>
                <mxCell id="DgBatSYD82bQFzQM79zM-45" value="Agregar amigo" style="whiteSpace=wrap;html=1;fillColor=#ffe6cc;strokeColor=#d79b00;" parent="1" vertex="1">
                    <mxGeometry x="853.02" y="861.75" width="120" height="60" as="geometry"/>
                </mxCell>
                <mxCell id="DgBatSYD82bQFzQM79zM-46" style="edgeStyle=orthogonalEdgeStyle;rounded=0;orthogonalLoop=1;jettySize=auto;html=1;exitX=0.75;exitY=1;exitDx=0;exitDy=0;entryX=0.5;entryY=0;entryDx=0;entryDy=0;" parent="1" source="DgBatSYD82bQFzQM79zM-50" target="DgBatSYD82bQFzQM79zM-33" edge="1">
                    <mxGeometry relative="1" as="geometry">
                        <Array as="points">
                            <mxPoint x="771.02" y="548.25"/>
                            <mxPoint x="1016.02" y="548.25"/>
                        </Array>
                    </mxGeometry>
                </mxCell>
                <mxCell id="DgBatSYD82bQFzQM79zM-47" style="edgeStyle=orthogonalEdgeStyle;rounded=0;orthogonalLoop=1;jettySize=auto;html=1;exitX=0.25;exitY=1;exitDx=0;exitDy=0;entryX=0.5;entryY=0;entryDx=0;entryDy=0;" parent="1" source="DgBatSYD82bQFzQM79zM-50" target="DgBatSYD82bQFzQM79zM-14" edge="1">
                    <mxGeometry relative="1" as="geometry"/>
                </mxCell>
                <mxCell id="DgBatSYD82bQFzQM79zM-48" style="edgeStyle=orthogonalEdgeStyle;rounded=0;orthogonalLoop=1;jettySize=auto;html=1;exitX=0.5;exitY=1;exitDx=0;exitDy=0;entryX=0.5;entryY=0;entryDx=0;entryDy=0;" parent="1" source="DgBatSYD82bQFzQM79zM-50" target="DgBatSYD82bQFzQM79zM-56" edge="1">
                    <mxGeometry relative="1" as="geometry"/>
                </mxCell>
                <mxCell id="DgBatSYD82bQFzQM79zM-49" style="edgeStyle=orthogonalEdgeStyle;rounded=0;orthogonalLoop=1;jettySize=auto;html=1;exitX=1;exitY=0.5;exitDx=0;exitDy=0;entryX=0;entryY=0.5;entryDx=0;entryDy=0;" parent="1" source="DgBatSYD82bQFzQM79zM-50" target="DgBatSYD82bQFzQM79zM-27" edge="1">
                    <mxGeometry relative="1" as="geometry"/>
                </mxCell>
                <mxCell id="DgBatSYD82bQFzQM79zM-50" value="Feed personal" style="whiteSpace=wrap;html=1;fillColor=#f8cecc;strokeColor=#b85450;" parent="1" vertex="1">
                    <mxGeometry x="681.02" y="447.75" width="120" height="60" as="geometry"/>
                </mxCell>
                <mxCell id="DgBatSYD82bQFzQM79zM-51" style="edgeStyle=orthogonalEdgeStyle;rounded=0;orthogonalLoop=1;jettySize=auto;html=1;exitX=0.5;exitY=1;exitDx=0;exitDy=0;entryX=0.5;entryY=0;entryDx=0;entryDy=0;" parent="1" source="DgBatSYD82bQFzQM79zM-52" target="DgBatSYD82bQFzQM79zM-45" edge="1">
                    <mxGeometry relative="1" as="geometry"/>
                </mxCell>
                <mxCell id="DgBatSYD82bQFzQM79zM-52" value="Perfil de Estudiante" style="whiteSpace=wrap;html=1;fillColor=#ffe6cc;strokeColor=#d79b00;" parent="1" vertex="1">
                    <mxGeometry x="853.02" y="771.75" width="120" height="60" as="geometry"/>
                </mxCell>
                <mxCell id="DgBatSYD82bQFzQM79zM-53" style="edgeStyle=orthogonalEdgeStyle;rounded=0;orthogonalLoop=1;jettySize=auto;html=1;exitX=0.5;exitY=1;exitDx=0;exitDy=0;entryX=0.5;entryY=0;entryDx=0;entryDy=0;" parent="1" source="DgBatSYD82bQFzQM79zM-54" target="DgBatSYD82bQFzQM79zM-71" edge="1">
                    <mxGeometry relative="1" as="geometry"/>
                </mxCell>
                <mxCell id="DgBatSYD82bQFzQM79zM-54" value="Mi Muro" style="whiteSpace=wrap;html=1;fillColor=#dae8fc;strokeColor=#6c8ebf;" parent="1" vertex="1">
                    <mxGeometry x="490.02" y="665.25" width="120" height="60" as="geometry"/>
                </mxCell>
                <mxCell id="DgBatSYD82bQFzQM79zM-55" style="edgeStyle=orthogonalEdgeStyle;rounded=0;orthogonalLoop=1;jettySize=auto;html=1;exitX=0.5;exitY=1;exitDx=0;exitDy=0;entryX=0.5;entryY=0;entryDx=0;entryDy=0;" parent="1" source="DgBatSYD82bQFzQM79zM-56" target="DgBatSYD82bQFzQM79zM-60" edge="1">
                    <mxGeometry relative="1" as="geometry"/>
                </mxCell>
                <mxCell id="DgBatSYD82bQFzQM79zM-56" value="Notificaciones" style="whiteSpace=wrap;html=1;fillColor=#b0e3e6;strokeColor=#0e8088;" parent="1" vertex="1">
                    <mxGeometry x="681.02" y="583.25" width="120" height="60" as="geometry"/>
                </mxCell>
                <mxCell id="DgBatSYD82bQFzQM79zM-57" style="edgeStyle=orthogonalEdgeStyle;rounded=0;orthogonalLoop=1;jettySize=auto;html=1;exitX=0;exitY=0.5;exitDx=0;exitDy=0;entryX=0;entryY=0.5;entryDx=0;entryDy=0;" parent="1" source="DgBatSYD82bQFzQM79zM-60" target="DgBatSYD82bQFzQM79zM-61" edge="1">
                    <mxGeometry relative="1" as="geometry"/>
                </mxCell>
                <mxCell id="DgBatSYD82bQFzQM79zM-58" style="edgeStyle=orthogonalEdgeStyle;rounded=0;orthogonalLoop=1;jettySize=auto;html=1;exitX=0;exitY=0.5;exitDx=0;exitDy=0;entryX=0;entryY=0.5;entryDx=0;entryDy=0;" parent="1" source="DgBatSYD82bQFzQM79zM-60" target="DgBatSYD82bQFzQM79zM-62" edge="1">
                    <mxGeometry relative="1" as="geometry"/>
                </mxCell>
                <mxCell id="DgBatSYD82bQFzQM79zM-59" style="edgeStyle=orthogonalEdgeStyle;rounded=0;orthogonalLoop=1;jettySize=auto;html=1;exitX=0;exitY=0.5;exitDx=0;exitDy=0;entryX=0;entryY=0.5;entryDx=0;entryDy=0;" parent="1" source="DgBatSYD82bQFzQM79zM-60" target="DgBatSYD82bQFzQM79zM-63" edge="1">
                    <mxGeometry relative="1" as="geometry"/>
                </mxCell>
                <mxCell id="DgBatSYD82bQFzQM79zM-60" value="&lt;div&gt;Notificación&lt;/div&gt;&lt;div&gt;&amp;nbsp;detallada&lt;/div&gt;" style="whiteSpace=wrap;html=1;fillColor=#b0e3e6;strokeColor=#0e8088;" parent="1" vertex="1">
                    <mxGeometry x="681.02" y="665.25" width="120" height="60" as="geometry"/>
                </mxCell>
                <mxCell id="DgBatSYD82bQFzQM79zM-61" value="Ver Publicación" style="whiteSpace=wrap;html=1;fillColor=#b0e3e6;strokeColor=#0e8088;" parent="1" vertex="1">
                    <mxGeometry x="681.02" y="741.25" width="120" height="60" as="geometry"/>
                </mxCell>
                <mxCell id="DgBatSYD82bQFzQM79zM-62" value="Ver Comentario" style="whiteSpace=wrap;html=1;fillColor=#b0e3e6;strokeColor=#0e8088;" parent="1" vertex="1">
                    <mxGeometry x="681.02" y="818.25" width="120" height="60" as="geometry"/>
                </mxCell>
                <mxCell id="DgBatSYD82bQFzQM79zM-63" value="Ver Chat" style="whiteSpace=wrap;html=1;fillColor=#b0e3e6;strokeColor=#0e8088;" parent="1" vertex="1">
                    <mxGeometry x="681.02" y="898.25" width="120" height="60" as="geometry"/>
                </mxCell>
                <mxCell id="DgBatSYD82bQFzQM79zM-64" style="edgeStyle=orthogonalEdgeStyle;rounded=0;orthogonalLoop=1;jettySize=auto;html=1;exitX=0;exitY=0.5;exitDx=0;exitDy=0;entryX=0.5;entryY=0;entryDx=0;entryDy=0;" parent="1" source="DgBatSYD82bQFzQM79zM-66" target="DgBatSYD82bQFzQM79zM-6" edge="1">
                    <mxGeometry relative="1" as="geometry">
                        <Array as="points">
                            <mxPoint x="260" y="386"/>
                            <mxPoint x="260" y="447"/>
                            <mxPoint x="370" y="447"/>
                        </Array>
                    </mxGeometry>
                </mxCell>
                <mxCell id="DgBatSYD82bQFzQM79zM-65" style="edgeStyle=orthogonalEdgeStyle;rounded=0;orthogonalLoop=1;jettySize=auto;html=1;exitX=1;exitY=0.5;exitDx=0;exitDy=0;entryX=0.5;entryY=0;entryDx=0;entryDy=0;" parent="1" source="DgBatSYD82bQFzQM79zM-66" target="DgBatSYD82bQFzQM79zM-50" edge="1">
                    <mxGeometry relative="1" as="geometry">
                        <Array as="points">
                            <mxPoint x="388" y="390"/>
                            <mxPoint x="741" y="390"/>
                        </Array>
                    </mxGeometry>
                </mxCell>
                <mxCell id="DgBatSYD82bQFzQM79zM-66" value="" style="rhombus;whiteSpace=wrap;html=1;fillColor=#fff2cc;strokeColor=#d6b656;" parent="1" vertex="1">
                    <mxGeometry x="352" y="368" width="36" height="36" as="geometry"/>
                </mxCell>
                <mxCell id="DgBatSYD82bQFzQM79zM-67" value="¿Credenciales válidas?" style="text;html=1;align=center;verticalAlign=middle;whiteSpace=wrap;rounded=0;" parent="1" vertex="1">
                    <mxGeometry x="310" y="404" width="130" height="30" as="geometry"/>
                </mxCell>
                <mxCell id="DgBatSYD82bQFzQM79zM-68" value="No" style="text;html=1;align=center;verticalAlign=middle;whiteSpace=wrap;rounded=0;" parent="1" vertex="1">
                    <mxGeometry x="292" y="359" width="60" height="30" as="geometry"/>
                </mxCell>
                <mxCell id="DgBatSYD82bQFzQM79zM-69" value="Si" style="text;html=1;align=center;verticalAlign=middle;whiteSpace=wrap;rounded=0;" parent="1" vertex="1">
                    <mxGeometry x="380" y="368" width="60" height="30" as="geometry"/>
                </mxCell>
                <mxCell id="DgBatSYD82bQFzQM79zM-70" value="Publicar en Mi Muro" style="whiteSpace=wrap;html=1;fillColor=#dae8fc;strokeColor=#6c8ebf;" parent="1" vertex="1">
                    <mxGeometry x="490.02" y="987" width="120" height="60" as="geometry"/>
                </mxCell>
                <mxCell id="DgBatSYD82bQFzQM79zM-71" value="Ver Publicación" style="whiteSpace=wrap;html=1;fillColor=#dae8fc;strokeColor=#6c8ebf;" parent="1" vertex="1">
                    <mxGeometry x="490.02" y="750" width="120" height="60" as="geometry"/>
                </mxCell>
            </root>
        </mxGraphModel>
    </diagram>
</mxfile>